<svg height="64" viewBox="0 0 64 64" width="64" xmlns="http://www.w3.org/2000/svg"><g fill="#2499ca" fill-rule="evenodd" transform="matrix(2.2195825 0 0 2.2195825 -19.81886 -34.587474)"><path d="m36.686148 27.47969c.07521.658717-.540212 1.108419-.96097 1.423365-1.36085 1.018977-3.014107 1.892877-4.554435 2.704144 1.311621 1.522297 2.903431 3.362979 4.020747 5.373175.711979 1.280542 1.583863 3.712563-1.067494 3.522528-1.46334-.104982-2.849932-.800472-4.056334-1.423483-1.261799-.651719-2.450408-1.354445-3.451473-2.027871-.742939 2.175557-1.470339 4.379584-2.775436 6.048974-.40593.518741-.854683 1.200471-1.6013 1.316603-.271886-.825027.173783-1.61423.462632-2.241867.91186-1.981489 2.522887-3.34827 3.202481-5.550755-.833093-.649346-1.710789-1.254563-2.562032-1.885997-.952785.292526-1.931786.559073-2.917667.818503.07865 1.285168.144365 2.583266.49822 3.593702-.426334.49905-.855395.994897-1.245548 1.530126-.190273-2.430242-.07426-5.049451.177935-7.436632.04555-.430604.194187-.99632.142348-1.281135-.05065-.275682-.905454-.97651-1.103081-1.174256-.397507-.39727-.760021-.737482-1.138549-1.102962-.665004.443415-1.404385.940567-2.099519 1.530126-.634043.537958-1.39964 1.202488-1.601063 2.028227-.145195.594304.102847 1.085287.462513 1.352072.991931.734636 3.160133.581018 4.661196.426807.01447.299169-.01162.557768-.03535.81874-1.324077.238434-2.812922.595965-4.483498.711623-1.618738.111863-3.614106.08671-4.376737-.747447-.275563-.301067-.3810191-.799523-.177817-1.316366.334875-.852667 1.262393-1.647089 1.99264-2.241749 2.340206-1.905926 5.352297-3.280536 8.183842-4.518967-.03013.218742-.0917.406286-.07105.675918-.662513.227045-1.163935.6153-1.779236.889677.988847 1.236295 2.145308 2.383504 3.344949 3.451472.392051.348991.843888.625977 1.138549 1.032026-.184697.04033-.348279.102253-.498219.177698-.6688-.481612-1.229652-1.07129-1.885759-1.565594-.02752.814825-.108897 1.575321-.106762 2.419565 2.240207-.404862 4.259181-1.03072 6.155617-1.779117-.05077.233926-.123487.445788-.177698.676036-.770817.26121-1.501419.562751-2.312924.783035.843533.666071 1.922059 1.347564 3.059896 1.956815 1.092643.584814 2.410195 1.192167 3.73617 1.280898 1.092286.07331 1.863339-.31459 1.779354-1.458833-.129181-1.764883-1.527279-3.136409-2.277336-4.269857-.910911.417436-1.817551.839024-2.775437 1.209842-.195729.84804-.406997 1.680185-.64033 2.49074-.257532-.05125-.451244-.16548-.640568-.284697.64472-1.703554 1.04887-3.647794 1.387541-5.657634.11115-.07141.427757.233451.462632.391458.121352.549464-.425147 1.750884-.391458 2.312923 1.533447-.645431 2.897856-1.422179 4.269857-2.455153.594185-.446974 1.191099-1.005217 1.885997-1.49442.723366-.509251 1.726448-1.183508 2.739968-1.032026"/><path d="m27.861619 28.298193c.139027-1.387066.168564-3.149101 0-4.732607-.15433-1.447802-.440094-3.038663-1.352191-3.593703-.581018-.353617-1.292404-.03606-1.672355.284578-1.05065.886475-1.751478 2.604738-2.313042 3.914224 1.725973 1.211147 3.484212 2.60877 5.05301 3.949454.07177.06168.146144.243772.284578.178054m2.348391 2.455153c-.203795.08078-.361446.207829-.533806.320047-1.887895-2.151833-4.134744-4.144235-6.831652-5.799746-1.208063-.741516-2.611143-1.597267-4.234389-2.063814-.821824-.236298-1.730481-.179003-2.811023-.35587-.622418-.101542-2.043648-.38529-1.850291-1.280898.123368-.572122 1.550647-.591339 2.206162-.533688.860851.07568 1.598927.368208 2.134869.640449 1.286235.65326 2.367964 1.345073 3.522528 2.028227.431197-1.304742.976509-2.863693 1.637006-4.305563.626807-1.368323 1.336295-2.839019 2.383978-3.558234.831552-.571054 1.659307-.132621 2.063814.604862.78517 1.431194.948633 3.705683.960614 5.94245.0121 2.282555-.193357 4.558468-.462395 6.440194.547448.674375 1.381372 1.251242 1.814585 1.921584"/><path d="m24.089862 29.294513c1.614705-.24306 1.754206 2.334513.142467 2.312804-.405811-.0055-1.01957-.289916-1.138786-.889558-.174021-.875205.362513-1.327991.996319-1.423246"/><path d="m21.421187 25.024537c.258718.06157.457887.182681.640449.320284-.59727 1.763103-1.057292 3.663453-1.387778 5.692984-.09253.109134-.450888-.30249-.462394-.390983.268801-2.008654.745074-3.809597 1.209723-5.622285"/><path d="m17.578375 28.262606c-.211031.156465-.49988.235468-.711741.391221-1.065596-1.021705-1.928464-2.246257-2.811024-3.451354.535111-.01317 1.151005.200948 1.850172.142348.409726 1.120519.978171 2.081963 1.672593 2.917785"/></g></svg>