<svg enable-background="new 0 0 120 60" height="60" viewBox="0 0 120 60" width="120" xmlns="http://www.w3.org/2000/svg"><g fill="#003b71"><path d="m39.5 32.9-3.4-11.1-3.4 11.1-1.8 5.9-2 6.5h-6.7l10.1-30.8h8.4l10.1 30.8h-7.4l-2-6.5z"/><path d="m78.2 14.6h6.8v24.9h14.6v5.9h-21.4z"/><path d="m76.1 34.2c0 7.4-4.8 11.2-12.3 11.2h-12.2v-30.8h12.3c7.4 0 12.2 3.8 12.2 11.2zm-6.8-8.4c0-3.5-2.2-5.2-5.4-5.2h-5.5v18.9h5.4c3.3 0 5.5-1.8 5.5-5.2z"/></g><path d="m50 35.3-29.6 4.7v-6.1l29.6-4.7z" fill="#00a0df"/></svg>