<svg enable-background="new 0 0 120 60" height="60" viewBox="0 0 120 60" width="120" xmlns="http://www.w3.org/2000/svg"><g fill="#0c2f74"><path d="m21.9 51.9 4.7-14.4h3l4.7 14.4h-2.7l-1.1-3.9h-4.8l-1.1 3.9zm4.9-7.7-.5 1.8h3.7l-.5-1.8c-.2-.8-.5-1.5-.7-2.4-.2-.8-.4-1.6-.6-2.4h-.2c-.2.8-.4 1.6-.6 2.4-.2.9-.4 1.6-.6 2.4z"/><path d="m40.1 51.9v-14.4h8.7v2.2h-6.1v4.1h5.2v2.2h-5.2v6h-2.6z"/><path d="m58.3 51.9v-12.3h-4.2v-2.2h10.9v2.2h-4.2v12.2h-2.5z"/><path d="m71.5 51.9v-14.4h8.7v2.2h-6.2v3.7h5.2v2.2h-5.2v4.2h6.3v2.2h-8.8z"/><path d="m87.3 51.9v-14.4h4.9c.7 0 1.4.1 2.1.2.6.1 1.2.4 1.7.7s.8.8 1.1 1.3.4 1.2.4 2c0 1.1-.3 2-.8 2.7s-1.2 1.2-2.1 1.5l3.4 6h-2.9l-3.1-5.6h-2.2v5.6zm2.6-7.7h2c1 0 1.7-.2 2.3-.6.5-.4.8-1 .8-1.8s-.3-1.4-.8-1.7-1.3-.5-2.3-.5h-2z"/></g><path d="m54.5 17.6-2.6 2.5-8.9 8.9-2.5-2.5 8.9-8.9-8.9-8.9 2.5-2.6z" fill="#e60909"/><path d="m65 17.6-2.6 2.5-8.8 8.9-2.6-2.5 8.9-8.9-8.9-8.9 2.6-2.6z" fill="#04369b"/><path d="m75.5 17.6-2.5 2.5-8.9 8.9-2.5-2.5 8.8-8.9-8.8-8.9 2.5-2.6z" fill="#bad1ff"/><path d="m54.5 17.6-2.6 2.5z" fill="#0c2f74"/></svg>